<mxfile host="app.diagrams.net" agent="Mozilla/5.0 (X11; Linux x86_64; rv:128.0) Gecko/20100101 Firefox/128.0" version="24.7.6">
  <diagram name="Page-1" id="4zfZgd4Ece237QIw_unE">
    <mxGraphModel dx="1434" dy="748" grid="1" gridSize="10" guides="1" tooltips="1" connect="1" arrows="1" fold="1" page="1" pageScale="1" pageWidth="1600" pageHeight="900" math="0" shadow="0">
      <root>
        <mxCell id="0" />
        <mxCell id="1" parent="0" />
        <mxCell id="-la1Wq3W90kXYNGLQLmI-25" value="" style="rounded=1;whiteSpace=wrap;html=1;fillColor=#deddda;" vertex="1" parent="1">
          <mxGeometry x="575" y="375" width="130" height="120" as="geometry" />
        </mxCell>
        <mxCell id="D7OsfmTdGm04QHHALEOI-2" value="Core" style="rounded=1;whiteSpace=wrap;html=1;" parent="1" vertex="1">
          <mxGeometry x="600" y="280" width="80" height="80" as="geometry" />
        </mxCell>
        <mxCell id="D7OsfmTdGm04QHHALEOI-3" value="" style="endArrow=classic;html=1;rounded=1;exitX=1;exitY=0.5;exitDx=0;exitDy=0;entryX=0;entryY=0.5;entryDx=0;entryDy=0;curved=0;strokeWidth=2;fillColor=#e1d5e7;strokeColor=#9673a6;" parent="1" source="D7OsfmTdGm04QHHALEOI-2" target="D7OsfmTdGm04QHHALEOI-4" edge="1">
          <mxGeometry width="50" height="50" relative="1" as="geometry">
            <mxPoint x="680" y="420" as="sourcePoint" />
            <mxPoint x="720" y="320" as="targetPoint" />
            <Array as="points">
              <mxPoint x="720" y="320" />
              <mxPoint x="720" y="230" />
            </Array>
          </mxGeometry>
        </mxCell>
        <mxCell id="D7OsfmTdGm04QHHALEOI-4" value="Fuel-Helium HX" style="rounded=1;whiteSpace=wrap;html=1;gradientColor=none;" parent="1" vertex="1">
          <mxGeometry x="760" y="210" width="120" height="40" as="geometry" />
        </mxCell>
        <mxCell id="D7OsfmTdGm04QHHALEOI-5" value="Helium-Water HX" style="rounded=1;whiteSpace=wrap;html=1;" parent="1" vertex="1">
          <mxGeometry x="760" y="270" width="120" height="40" as="geometry" />
        </mxCell>
        <mxCell id="D7OsfmTdGm04QHHALEOI-6" value="Helium-Water HX" style="rounded=1;whiteSpace=wrap;html=1;" parent="1" vertex="1">
          <mxGeometry x="760" y="390" width="120" height="40" as="geometry" />
        </mxCell>
        <mxCell id="D7OsfmTdGm04QHHALEOI-7" value="Fuel-Helium HX" style="rounded=1;whiteSpace=wrap;html=1;" parent="1" vertex="1">
          <mxGeometry x="760" y="330" width="120" height="40" as="geometry" />
        </mxCell>
        <mxCell id="D7OsfmTdGm04QHHALEOI-8" value="" style="endArrow=classic;html=1;rounded=1;exitX=1;exitY=0.5;exitDx=0;exitDy=0;entryX=0;entryY=0.5;entryDx=0;entryDy=0;curved=0;fillColor=#e1d5e7;strokeColor=#9673a6;strokeWidth=2;" parent="1" source="D7OsfmTdGm04QHHALEOI-2" target="D7OsfmTdGm04QHHALEOI-7" edge="1">
          <mxGeometry width="50" height="50" relative="1" as="geometry">
            <mxPoint x="680" y="420" as="sourcePoint" />
            <mxPoint x="730" y="370" as="targetPoint" />
            <Array as="points">
              <mxPoint x="720" y="320" />
              <mxPoint x="720" y="350" />
            </Array>
          </mxGeometry>
        </mxCell>
        <mxCell id="D7OsfmTdGm04QHHALEOI-9" value="" style="endArrow=classic;html=1;rounded=1;exitX=1;exitY=0.5;exitDx=0;exitDy=0;curved=0;fillColor=#e1d5e7;strokeColor=#9673a6;strokeWidth=2;" parent="1" source="D7OsfmTdGm04QHHALEOI-4" edge="1">
          <mxGeometry width="50" height="50" relative="1" as="geometry">
            <mxPoint x="680" y="420" as="sourcePoint" />
            <mxPoint x="1000" y="320" as="targetPoint" />
            <Array as="points">
              <mxPoint x="960" y="230" />
              <mxPoint x="960" y="320" />
            </Array>
          </mxGeometry>
        </mxCell>
        <mxCell id="D7OsfmTdGm04QHHALEOI-11" value="" style="endArrow=classic;html=1;rounded=1;exitX=1;exitY=0.5;exitDx=0;exitDy=0;curved=0;strokeWidth=2;fillColor=#e1d5e7;strokeColor=#9673a6;" parent="1" source="D7OsfmTdGm04QHHALEOI-7" edge="1">
          <mxGeometry width="50" height="50" relative="1" as="geometry">
            <mxPoint x="680" y="420" as="sourcePoint" />
            <mxPoint x="1000" y="320" as="targetPoint" />
            <Array as="points">
              <mxPoint x="960" y="350" />
              <mxPoint x="960" y="320" />
            </Array>
          </mxGeometry>
        </mxCell>
        <mxCell id="D7OsfmTdGm04QHHALEOI-13" value="Back to core" style="text;html=1;strokeColor=none;fillColor=none;align=center;verticalAlign=middle;whiteSpace=wrap;rounded=0;" parent="1" vertex="1">
          <mxGeometry x="1000" y="305" width="90" height="30" as="geometry" />
        </mxCell>
        <mxCell id="D7OsfmTdGm04QHHALEOI-14" value="" style="endArrow=classic;html=1;rounded=0;exitX=0.5;exitY=1;exitDx=0;exitDy=0;entryX=0.5;entryY=0;entryDx=0;entryDy=0;fillColor=#d5e8d4;strokeColor=#82b366;strokeWidth=2;" parent="1" source="D7OsfmTdGm04QHHALEOI-4" target="D7OsfmTdGm04QHHALEOI-5" edge="1">
          <mxGeometry width="50" height="50" relative="1" as="geometry">
            <mxPoint x="680" y="420" as="sourcePoint" />
            <mxPoint x="730" y="370" as="targetPoint" />
          </mxGeometry>
        </mxCell>
        <mxCell id="D7OsfmTdGm04QHHALEOI-15" value="" style="endArrow=classic;html=1;rounded=0;exitX=0.5;exitY=1;exitDx=0;exitDy=0;entryX=0.5;entryY=0;entryDx=0;entryDy=0;fillColor=#d5e8d4;strokeColor=#82b366;strokeWidth=2;" parent="1" source="D7OsfmTdGm04QHHALEOI-5" target="D7OsfmTdGm04QHHALEOI-7" edge="1">
          <mxGeometry width="50" height="50" relative="1" as="geometry">
            <mxPoint x="680" y="420" as="sourcePoint" />
            <mxPoint x="730" y="370" as="targetPoint" />
          </mxGeometry>
        </mxCell>
        <mxCell id="D7OsfmTdGm04QHHALEOI-16" value="" style="endArrow=classic;html=1;rounded=0;exitX=0.5;exitY=1;exitDx=0;exitDy=0;entryX=0.5;entryY=0;entryDx=0;entryDy=0;fillColor=#d5e8d4;strokeColor=#82b366;strokeWidth=2;" parent="1" source="D7OsfmTdGm04QHHALEOI-7" target="D7OsfmTdGm04QHHALEOI-6" edge="1">
          <mxGeometry width="50" height="50" relative="1" as="geometry">
            <mxPoint x="680" y="420" as="sourcePoint" />
            <mxPoint x="730" y="370" as="targetPoint" />
          </mxGeometry>
        </mxCell>
        <mxCell id="D7OsfmTdGm04QHHALEOI-17" value="" style="endArrow=classic;html=1;rounded=1;exitX=0.5;exitY=1;exitDx=0;exitDy=0;entryX=0.5;entryY=0;entryDx=0;entryDy=0;curved=0;strokeWidth=2;fillColor=#d5e8d4;strokeColor=#82b366;jumpStyle=arc;" parent="1" source="D7OsfmTdGm04QHHALEOI-6" target="D7OsfmTdGm04QHHALEOI-4" edge="1">
          <mxGeometry width="50" height="50" relative="1" as="geometry">
            <mxPoint x="680" y="420" as="sourcePoint" />
            <mxPoint x="920" y="200" as="targetPoint" />
            <Array as="points">
              <mxPoint x="820" y="440" />
              <mxPoint x="920" y="440" />
              <mxPoint x="920" y="190" />
              <mxPoint x="820" y="190" />
            </Array>
          </mxGeometry>
        </mxCell>
        <mxCell id="D7OsfmTdGm04QHHALEOI-18" value="Coolant-Helium HX" style="rounded=1;whiteSpace=wrap;html=1;gradientColor=none;" parent="1" vertex="1">
          <mxGeometry x="400" y="265" width="120" height="40" as="geometry" />
        </mxCell>
        <mxCell id="D7OsfmTdGm04QHHALEOI-19" value="Helium-Water HX" style="rounded=1;whiteSpace=wrap;html=1;" parent="1" vertex="1">
          <mxGeometry x="400" y="210" width="120" height="40" as="geometry" />
        </mxCell>
        <mxCell id="D7OsfmTdGm04QHHALEOI-20" value="Coolant-Helium HX" style="rounded=1;whiteSpace=wrap;html=1;gradientColor=none;" parent="1" vertex="1">
          <mxGeometry x="400" y="335" width="120" height="40" as="geometry" />
        </mxCell>
        <mxCell id="D7OsfmTdGm04QHHALEOI-21" value="Helium-Water HX" style="rounded=1;whiteSpace=wrap;html=1;" parent="1" vertex="1">
          <mxGeometry x="400" y="390" width="120" height="40" as="geometry" />
        </mxCell>
        <mxCell id="D7OsfmTdGm04QHHALEOI-22" value="" style="endArrow=classic;html=1;rounded=1;exitX=0;exitY=0.5;exitDx=0;exitDy=0;entryX=1;entryY=0.5;entryDx=0;entryDy=0;fillColor=#ffe6cc;strokeColor=#d79b00;strokeWidth=2;curved=0;" parent="1" source="D7OsfmTdGm04QHHALEOI-2" target="D7OsfmTdGm04QHHALEOI-18" edge="1">
          <mxGeometry width="50" height="50" relative="1" as="geometry">
            <mxPoint x="680" y="420" as="sourcePoint" />
            <mxPoint x="730" y="370" as="targetPoint" />
            <Array as="points">
              <mxPoint x="560" y="320" />
              <mxPoint x="560" y="285" />
            </Array>
          </mxGeometry>
        </mxCell>
        <mxCell id="D7OsfmTdGm04QHHALEOI-23" value="" style="endArrow=classic;html=1;rounded=1;exitX=0;exitY=0.5;exitDx=0;exitDy=0;fillColor=#ffe6cc;strokeColor=#d79b00;strokeWidth=2;curved=0;jumpStyle=arc;entryX=1;entryY=0.5;entryDx=0;entryDy=0;" parent="1" source="D7OsfmTdGm04QHHALEOI-2" target="D7OsfmTdGm04QHHALEOI-20" edge="1">
          <mxGeometry width="50" height="50" relative="1" as="geometry">
            <mxPoint x="680" y="420" as="sourcePoint" />
            <mxPoint x="590" y="280" as="targetPoint" />
            <Array as="points">
              <mxPoint x="560" y="320" />
              <mxPoint x="560" y="355" />
            </Array>
          </mxGeometry>
        </mxCell>
        <mxCell id="D7OsfmTdGm04QHHALEOI-24" value="" style="endArrow=classic;html=1;rounded=1;exitX=0;exitY=0.5;exitDx=0;exitDy=0;fillColor=#ffe6cc;strokeColor=#d79b00;strokeWidth=2;curved=0;" parent="1" source="D7OsfmTdGm04QHHALEOI-18" edge="1">
          <mxGeometry width="50" height="50" relative="1" as="geometry">
            <mxPoint x="550" y="420" as="sourcePoint" />
            <mxPoint x="320" y="320" as="targetPoint" />
            <Array as="points">
              <mxPoint x="360" y="285" />
              <mxPoint x="360" y="320" />
            </Array>
          </mxGeometry>
        </mxCell>
        <mxCell id="D7OsfmTdGm04QHHALEOI-25" value="" style="endArrow=classic;html=1;rounded=1;exitX=0;exitY=0.5;exitDx=0;exitDy=0;fillColor=#ffe6cc;strokeColor=#d79b00;strokeWidth=2;curved=0;" parent="1" source="D7OsfmTdGm04QHHALEOI-20" edge="1">
          <mxGeometry width="50" height="50" relative="1" as="geometry">
            <mxPoint x="550" y="420" as="sourcePoint" />
            <mxPoint x="320" y="320" as="targetPoint" />
            <Array as="points">
              <mxPoint x="360" y="355" />
              <mxPoint x="360" y="320" />
            </Array>
          </mxGeometry>
        </mxCell>
        <mxCell id="D7OsfmTdGm04QHHALEOI-26" value="Back to core" style="text;html=1;strokeColor=none;fillColor=none;align=center;verticalAlign=middle;whiteSpace=wrap;rounded=0;" parent="1" vertex="1">
          <mxGeometry x="230" y="305" width="90" height="30" as="geometry" />
        </mxCell>
        <mxCell id="D7OsfmTdGm04QHHALEOI-27" value="" style="endArrow=classic;html=1;rounded=0;exitX=0.25;exitY=1;exitDx=0;exitDy=0;entryX=0.25;entryY=0;entryDx=0;entryDy=0;fillColor=#d5e8d4;strokeColor=#82b366;strokeWidth=2;" parent="1" source="D7OsfmTdGm04QHHALEOI-19" target="D7OsfmTdGm04QHHALEOI-18" edge="1">
          <mxGeometry width="50" height="50" relative="1" as="geometry">
            <mxPoint x="550" y="420" as="sourcePoint" />
            <mxPoint x="600" y="370" as="targetPoint" />
          </mxGeometry>
        </mxCell>
        <mxCell id="D7OsfmTdGm04QHHALEOI-29" value="" style="endArrow=classic;html=1;rounded=0;entryX=0.75;entryY=1;entryDx=0;entryDy=0;exitX=0.75;exitY=0;exitDx=0;exitDy=0;fillColor=#d5e8d4;strokeColor=#82b366;strokeWidth=2;" parent="1" source="D7OsfmTdGm04QHHALEOI-21" target="D7OsfmTdGm04QHHALEOI-20" edge="1">
          <mxGeometry width="50" height="50" relative="1" as="geometry">
            <mxPoint x="550" y="420" as="sourcePoint" />
            <mxPoint x="600" y="370" as="targetPoint" />
          </mxGeometry>
        </mxCell>
        <mxCell id="D7OsfmTdGm04QHHALEOI-31" value="" style="endArrow=classic;html=1;rounded=1;exitX=0.75;exitY=0;exitDx=0;exitDy=0;entryX=0.75;entryY=1;entryDx=0;entryDy=0;fillColor=#d5e8d4;strokeColor=#82b366;strokeWidth=2;curved=0;jumpStyle=arc;" parent="1" source="D7OsfmTdGm04QHHALEOI-20" target="D7OsfmTdGm04QHHALEOI-21" edge="1">
          <mxGeometry width="50" height="50" relative="1" as="geometry">
            <mxPoint x="550" y="420" as="sourcePoint" />
            <mxPoint x="600" y="370" as="targetPoint" />
            <Array as="points">
              <mxPoint x="490" y="320" />
              <mxPoint x="540" y="320" />
              <mxPoint x="540" y="450" />
              <mxPoint x="490" y="450" />
            </Array>
          </mxGeometry>
        </mxCell>
        <mxCell id="D7OsfmTdGm04QHHALEOI-34" value="" style="endArrow=classic;html=1;rounded=0;fillColor=#e1d5e7;strokeColor=#9673a6;strokeWidth=2;" parent="1" edge="1">
          <mxGeometry width="50" height="50" relative="1" as="geometry">
            <mxPoint x="635" y="390" as="sourcePoint" />
            <mxPoint x="685" y="390" as="targetPoint" />
          </mxGeometry>
        </mxCell>
        <mxCell id="D7OsfmTdGm04QHHALEOI-36" value="" style="endArrow=classic;html=1;rounded=0;fillColor=#ffe6cc;strokeColor=#d79b00;strokeWidth=2;" parent="1" edge="1">
          <mxGeometry width="50" height="50" relative="1" as="geometry">
            <mxPoint x="635" y="420" as="sourcePoint" />
            <mxPoint x="685" y="420" as="targetPoint" />
          </mxGeometry>
        </mxCell>
        <mxCell id="D7OsfmTdGm04QHHALEOI-37" value="" style="endArrow=classic;html=1;rounded=0;fillColor=#d5e8d4;strokeColor=#82b366;strokeWidth=2;" parent="1" edge="1">
          <mxGeometry width="50" height="50" relative="1" as="geometry">
            <mxPoint x="635" y="450" as="sourcePoint" />
            <mxPoint x="685" y="450" as="targetPoint" />
          </mxGeometry>
        </mxCell>
        <mxCell id="D7OsfmTdGm04QHHALEOI-38" value="Fuel" style="text;html=1;strokeColor=none;fillColor=none;align=center;verticalAlign=middle;whiteSpace=wrap;rounded=0;fontStyle=0" parent="1" vertex="1">
          <mxGeometry x="575" y="375" width="60" height="30" as="geometry" />
        </mxCell>
        <mxCell id="D7OsfmTdGm04QHHALEOI-39" value="Coolant" style="text;html=1;strokeColor=none;fillColor=none;align=center;verticalAlign=middle;whiteSpace=wrap;rounded=0;fontStyle=0" parent="1" vertex="1">
          <mxGeometry x="575" y="405" width="60" height="30" as="geometry" />
        </mxCell>
        <mxCell id="D7OsfmTdGm04QHHALEOI-40" value="Helium" style="text;html=1;strokeColor=none;fillColor=none;align=center;verticalAlign=middle;whiteSpace=wrap;rounded=0;fontStyle=0" parent="1" vertex="1">
          <mxGeometry x="575" y="435" width="60" height="30" as="geometry" />
        </mxCell>
        <mxCell id="-la1Wq3W90kXYNGLQLmI-1" value="" style="endArrow=classic;html=1;rounded=1;fillColor=#dae8fc;strokeColor=#6c8ebf;strokeWidth=2;entryX=0;entryY=0.5;entryDx=0;entryDy=0;curved=0;jumpStyle=arc;" edge="1" parent="1" target="D7OsfmTdGm04QHHALEOI-5">
          <mxGeometry width="50" height="50" relative="1" as="geometry">
            <mxPoint x="730" y="480" as="sourcePoint" />
            <mxPoint x="730" y="290" as="targetPoint" />
            <Array as="points">
              <mxPoint x="730" y="450" />
              <mxPoint x="730" y="290" />
            </Array>
          </mxGeometry>
        </mxCell>
        <mxCell id="-la1Wq3W90kXYNGLQLmI-4" value="" style="endArrow=classic;html=1;rounded=0;fillColor=#dae8fc;strokeColor=#6c8ebf;strokeWidth=2;entryX=0;entryY=0.5;entryDx=0;entryDy=0;" edge="1" parent="1" target="D7OsfmTdGm04QHHALEOI-6">
          <mxGeometry width="50" height="50" relative="1" as="geometry">
            <mxPoint x="730" y="410" as="sourcePoint" />
            <mxPoint x="500" y="585" as="targetPoint" />
          </mxGeometry>
        </mxCell>
        <mxCell id="-la1Wq3W90kXYNGLQLmI-7" value="Ambient" style="text;html=1;strokeColor=none;fillColor=none;align=center;verticalAlign=middle;whiteSpace=wrap;rounded=0;fontStyle=0" vertex="1" parent="1">
          <mxGeometry x="700" y="480" width="60" height="30" as="geometry" />
        </mxCell>
        <mxCell id="-la1Wq3W90kXYNGLQLmI-8" value="" style="endArrow=classic;html=1;rounded=1;fillColor=#dae8fc;strokeColor=#6c8ebf;strokeWidth=2;curved=0;jumpStyle=arc;" edge="1" parent="1">
          <mxGeometry width="50" height="50" relative="1" as="geometry">
            <mxPoint x="880" y="289.5" as="sourcePoint" />
            <mxPoint x="900" y="480" as="targetPoint" />
            <Array as="points">
              <mxPoint x="900" y="290" />
            </Array>
          </mxGeometry>
        </mxCell>
        <mxCell id="-la1Wq3W90kXYNGLQLmI-9" value="Dumped" style="text;html=1;strokeColor=none;fillColor=none;align=center;verticalAlign=middle;whiteSpace=wrap;rounded=0;fontStyle=0" vertex="1" parent="1">
          <mxGeometry x="870" y="480" width="60" height="30" as="geometry" />
        </mxCell>
        <mxCell id="-la1Wq3W90kXYNGLQLmI-10" value="" style="endArrow=classic;html=1;rounded=0;fillColor=#dae8fc;strokeColor=#6c8ebf;strokeWidth=2;exitX=1;exitY=0.5;exitDx=0;exitDy=0;" edge="1" parent="1" source="D7OsfmTdGm04QHHALEOI-6">
          <mxGeometry width="50" height="50" relative="1" as="geometry">
            <mxPoint x="740" y="420" as="sourcePoint" />
            <mxPoint x="900" y="410" as="targetPoint" />
          </mxGeometry>
        </mxCell>
        <mxCell id="-la1Wq3W90kXYNGLQLmI-11" value="" style="endArrow=classic;html=1;rounded=1;fillColor=#dae8fc;strokeColor=#6c8ebf;strokeWidth=2;entryX=0;entryY=0.5;entryDx=0;entryDy=0;curved=0;" edge="1" parent="1" target="D7OsfmTdGm04QHHALEOI-21">
          <mxGeometry width="50" height="50" relative="1" as="geometry">
            <mxPoint x="370" y="480" as="sourcePoint" />
            <mxPoint x="400" y="449" as="targetPoint" />
            <Array as="points">
              <mxPoint x="370" y="410" />
            </Array>
          </mxGeometry>
        </mxCell>
        <mxCell id="-la1Wq3W90kXYNGLQLmI-12" value="Ambient" style="text;html=1;strokeColor=none;fillColor=none;align=center;verticalAlign=middle;whiteSpace=wrap;rounded=0;fontStyle=0" vertex="1" parent="1">
          <mxGeometry x="340" y="480" width="60" height="30" as="geometry" />
        </mxCell>
        <mxCell id="-la1Wq3W90kXYNGLQLmI-13" value="" style="endArrow=classic;html=1;rounded=1;fillColor=#dae8fc;strokeColor=#6c8ebf;strokeWidth=2;curved=0;jumpStyle=arc;" edge="1" parent="1">
          <mxGeometry width="50" height="50" relative="1" as="geometry">
            <mxPoint x="520" y="409.5" as="sourcePoint" />
            <mxPoint x="530" y="480" as="targetPoint" />
            <Array as="points">
              <mxPoint x="530" y="410" />
            </Array>
          </mxGeometry>
        </mxCell>
        <mxCell id="-la1Wq3W90kXYNGLQLmI-14" value="Dumped" style="text;html=1;strokeColor=none;fillColor=none;align=center;verticalAlign=middle;whiteSpace=wrap;rounded=0;fontStyle=0" vertex="1" parent="1">
          <mxGeometry x="500" y="480" width="60" height="30" as="geometry" />
        </mxCell>
        <mxCell id="-la1Wq3W90kXYNGLQLmI-15" value="" style="endArrow=classic;html=1;rounded=1;fillColor=#dae8fc;strokeColor=#6c8ebf;strokeWidth=2;curved=0;jumpStyle=none;" edge="1" parent="1">
          <mxGeometry width="50" height="50" relative="1" as="geometry">
            <mxPoint x="350" y="170" as="sourcePoint" />
            <mxPoint x="400" y="229.5" as="targetPoint" />
            <Array as="points">
              <mxPoint x="350" y="230" />
            </Array>
          </mxGeometry>
        </mxCell>
        <mxCell id="-la1Wq3W90kXYNGLQLmI-16" value="Ambient" style="text;html=1;strokeColor=none;fillColor=none;align=center;verticalAlign=middle;whiteSpace=wrap;rounded=0;fontStyle=0" vertex="1" parent="1">
          <mxGeometry x="320" y="140" width="60" height="20" as="geometry" />
        </mxCell>
        <mxCell id="-la1Wq3W90kXYNGLQLmI-17" value="" style="endArrow=classic;html=1;rounded=1;fillColor=#dae8fc;strokeColor=#6c8ebf;strokeWidth=2;curved=0;entryX=0.5;entryY=1;entryDx=0;entryDy=0;" edge="1" parent="1" target="-la1Wq3W90kXYNGLQLmI-18">
          <mxGeometry width="50" height="50" relative="1" as="geometry">
            <mxPoint x="520" y="229.5" as="sourcePoint" />
            <mxPoint x="550" y="190" as="targetPoint" />
            <Array as="points">
              <mxPoint x="550" y="230" />
            </Array>
          </mxGeometry>
        </mxCell>
        <mxCell id="-la1Wq3W90kXYNGLQLmI-18" value="Dumped" style="text;html=1;strokeColor=none;fillColor=none;align=center;verticalAlign=middle;whiteSpace=wrap;rounded=0;fontStyle=0" vertex="1" parent="1">
          <mxGeometry x="520" y="135" width="60" height="30" as="geometry" />
        </mxCell>
        <mxCell id="-la1Wq3W90kXYNGLQLmI-19" value="" style="endArrow=classic;html=1;rounded=1;fillColor=#d5e8d4;strokeColor=#82b366;strokeWidth=2;exitX=0.25;exitY=1;exitDx=0;exitDy=0;entryX=0.25;entryY=0;entryDx=0;entryDy=0;curved=0;jumpStyle=arc;" edge="1" parent="1" source="D7OsfmTdGm04QHHALEOI-18" target="D7OsfmTdGm04QHHALEOI-19">
          <mxGeometry width="50" height="50" relative="1" as="geometry">
            <mxPoint x="430" y="319.5" as="sourcePoint" />
            <mxPoint x="450" y="170" as="targetPoint" />
            <Array as="points">
              <mxPoint x="430" y="320" />
              <mxPoint x="380" y="320" />
              <mxPoint x="380" y="190" />
              <mxPoint x="430" y="190" />
            </Array>
          </mxGeometry>
        </mxCell>
        <mxCell id="-la1Wq3W90kXYNGLQLmI-22" value="Water" style="text;html=1;strokeColor=none;fillColor=none;align=center;verticalAlign=middle;whiteSpace=wrap;rounded=0;fontStyle=0" vertex="1" parent="1">
          <mxGeometry x="575" y="465" width="60" height="30" as="geometry" />
        </mxCell>
        <mxCell id="-la1Wq3W90kXYNGLQLmI-23" value="" style="endArrow=classic;html=1;rounded=0;fillColor=#dae8fc;strokeColor=#6c8ebf;strokeWidth=2;" edge="1" parent="1">
          <mxGeometry width="50" height="50" relative="1" as="geometry">
            <mxPoint x="635" y="479.5" as="sourcePoint" />
            <mxPoint x="685" y="479.5" as="targetPoint" />
          </mxGeometry>
        </mxCell>
      </root>
    </mxGraphModel>
  </diagram>
</mxfile>
